<?xml version="1.0" encoding="utf-8"?><svg xml:space="preserve" viewBox="0 0 100 100" y="0" x="0" xmlns="http://www.w3.org/2000/svg" id="圖層_1" version="1.1" width="200px" height="200px" xmlns:xlink="http://www.w3.org/1999/xlink" style="width:100%;height:100%;background-size:initial;background-repeat-y:initial;background-repeat-x:initial;background-position-y:initial;background-position-x:initial;background-origin:initial;background-image:initial;background-color:rgb(255, 255, 255);background-clip:initial;background-attachment:initial;animation-play-state:paused" ><g class="ldl-scale" style="transform-origin:50% 50%;transform:rotate(0deg) scale(0.8, 0.8);animation-play-state:paused" ><path fill="#f8b26a" d="M76.534 7.5H24.292a6.213 6.213 0 0 0-6.213 6.213v72.575a6.213 6.213 0 0 0 6.213 6.213h52.243a6.213 6.213 0 0 0 6.213-6.213V13.713A6.214 6.214 0 0 0 76.534 7.5zM27.822 78.757a5.79 5.79 0 1 1 0-11.578 5.79 5.79 0 0 1 0 11.578zm0-15.187a5.79 5.79 0 1 1 0-11.578 5.79 5.79 0 0 1 0 11.578zm0-15.186a5.79 5.79 0 1 1 0-11.578 5.79 5.79 0 0 1 0 11.578zm0-15.186a5.79 5.79 0 1 1 0-11.578 5.79 5.79 0 0 1 0 11.578z" style="fill:rgb(248, 178, 106);animation-play-state:paused" ></path>
<g style="animation-play-state:paused" ><g style="animation-play-state:paused" ><path fill="#e0e0e0" d="M27.822 30.797H14.267a3.39 3.39 0 0 1 0-6.778h13.555a3.39 3.39 0 0 1 0 6.778z" style="fill:rgb(224, 224, 224);animation-play-state:paused" ></path></g>
<g style="animation-play-state:paused" ><path fill="#e0e0e0" d="M27.822 45.858H14.267a3.39 3.39 0 0 1 0-6.778h13.555a3.39 3.39 0 0 1 0 6.778z" style="fill:rgb(224, 224, 224);animation-play-state:paused" ></path></g>
<g style="animation-play-state:paused" ><path fill="#e0e0e0" d="M27.822 60.919H14.267a3.39 3.39 0 0 1 0-6.778h13.555a3.39 3.39 0 0 1 0 6.778z" style="fill:rgb(224, 224, 224);animation-play-state:paused" ></path></g>
<g style="animation-play-state:paused" ><path fill="#e0e0e0" d="M27.822 75.98H14.267a3.39 3.39 0 0 1 0-6.778h13.555a3.39 3.39 0 0 1 0 6.778z" style="fill:rgb(224, 224, 224);animation-play-state:paused" ></path></g></g>
<metadata xmlns:d="https://loading.io/stock/" style="animation-play-state:paused" ><d:name style="animation-play-state:paused" >contacts</d:name>
<d:tags style="animation-play-state:paused" >notebook,textbook,memo,read,library,phone,address,friend,social,contacts,books</d:tags>
<d:license style="animation-play-state:paused" >by</d:license>
<d:slug style="animation-play-state:paused" >izhxab</d:slug></metadata></g><!-- generated by https://loading.io/ --></svg>